Coordinates
version=1
nRows=16
nColumns=32
inDegrees=yes

Units are S.I. units (second, meters, Newtons, ...)
If the header above contains a line with 'inDegrees', this indicates whether rotational values are in degrees (yes) or radians (no).

endheader
time	pelvis_tilt	pelvis_list	pelvis_rotation	pelvis_tx	pelvis_ty	pelvis_tz	hip_flexion_r	hip_adduction_r	hip_rotation_r	knee_angle_r	knee_adduction_r	med_cond_adduction_r	lat_cond_adduction_r	patella_r_constrained_knee_angle	ankle_angle_r	subtalar_angle_r	mtp_angle_r	hip_flexion_l	hip_adduction_l	hip_rotation_l	knee_angle_l	knee_adduction_l	med_cond_adduction_l	lat_cond_adduction_l	patella_l_constrained_knee_angle	ankle_angle_l	subtalar_angle_l	mtp_angle_l	lumbar_extension	lumbar_bending	lumbar_rotation
      0.17500000	      0.56222747	      9.55069368	     -1.24531918	     -0.51094204	      0.90380895	      0.24526897	     33.55706245	    -15.03846245	    -22.05665174	    -17.52572382	     -0.00000000	     -0.00000000	      0.00000000	     -0.30588158	     -1.89826986	     19.74388021	     -0.00000000	    -29.70022055	      9.11214650	    -15.75908073	      8.91115597	     -0.00000000	     -0.00000000	      0.00000000	      0.15552901	    -12.44529406	     18.53053593	      0.00000000	    -18.49254016	     -9.75481561	      5.60875198
      0.18000000	      0.27248792	     10.02498756	     -1.29961628	     -0.50264322	      0.90236901	      0.24579312	     34.58581077	    -15.82921945	    -22.20978230	    -19.62550931	      0.00000000	     -0.00000000	      0.00000000	     -0.34252975	     -1.90857689	     19.75212114	     -0.00000000	    -29.70688136	      9.50690705	    -15.64720015	      8.64503876	      0.00000000	      0.00000000	     -0.00000000	      0.15088439	    -13.39073264	     18.43501997	     -0.00000000	    -17.98050933	    -10.05430772	      6.08721431
      0.18500000	      0.06762760	     10.44415402	     -1.35509400	     -0.49431050	      0.90122844	      0.24634110	     35.41054252	    -16.55394551	    -22.31618771	    -21.52245410	     -0.00000000	     -0.00000000	      0.00000000	     -0.37563769	     -2.20372504	     19.75746007	      0.00000000	    -29.71224528	      9.83013928	    -15.62176697	      8.22257871	      0.00000000	     -0.00000000	      0.00000000	      0.14351107	    -14.35827852	     18.36686125	      0.00000000	    -17.54854341	    -10.39829531	      6.16761033
      0.19000000	     -0.01720445	     10.78998920	     -1.37321633	     -0.48591493	      0.90047989	      0.24681806	     35.96861229	    -17.22736992	    -22.43455928	    -23.23507864	     -0.00000000	      0.00000000	     -0.00000000	     -0.40552862	     -2.45374097	     19.75840428	     -0.00000000	    -29.72000147	     10.04105551	    -15.78008478	      7.55875927	     -0.00000000	     -0.00000000	      0.00000000	      0.13192524	    -15.26390749	     18.34747314	     -0.00000000	    -17.28421433	    -10.61003492	      6.32336288
      0.19500000	      0.10942979	     10.96642303	     -1.33755746	     -0.47762294	      0.90045687	      0.24731128	     36.05903279	    -17.73663245	    -22.65486209	    -24.57902718	      0.00000000	     -0.00000000	      0.00000000	     -0.42898495	     -2.94510122	     19.75786212	     -0.00000000	    -29.72552903	     10.00307223	    -16.23534136	      6.49259703	      0.00000000	     -0.00000000	      0.00000000	      0.11331720	    -16.10601059	     18.44971007	     -0.00000000	    -17.29951561	    -10.77345184	      5.81777618
      0.20000000	      0.38948459	     10.96267175	     -1.28133667	     -0.46936064	      0.90099932	      0.24784105	     35.78580609	    -18.06765048	    -22.98340633	    -25.65004316	     -0.00000000	     -0.00000000	      0.00000000	     -0.44767771	     -3.57419789	     19.75610441	      0.00000000	    -29.72990438	      9.72842427	    -16.89460292	      5.12697667	     -0.00000000	     -0.00000000	      0.00000000	      0.08948262	    -16.93900993	     18.55216998	     -0.00000000	    -17.55294966	    -10.55604183	      5.83443455
      0.20500000	      0.81858572	     10.87793270	     -1.19092243	     -0.46118415	      0.90199858	      0.24838689	     35.22504357	    -18.32956851	    -23.36305768	    -26.55087207	      0.00000000	      0.00000000	      0.00000000	     -0.46340014	     -4.22902368	     19.75160255	     -0.00000000	    -29.72798955	      9.29402297	    -17.73772287	      3.45515355	      0.00000000	     -0.00000000	     -0.00000000	      0.06030381	    -17.70363928	     18.71720392	     -0.00000000	    -17.98788099	    -10.33800091	      5.46832071
      0.21000000	      1.40676932	     10.58333157	     -1.10231698	     -0.45309244	      0.90352201	      0.24901376	     34.30441496	    -18.35440552	    -23.84626489	    -27.18385635	     -0.00000000	      0.00000000	     -0.00000000	     -0.47444780	     -4.91158571	     19.74577181	     -0.00000000	    -29.72815050	      8.58178118	    -18.85359686	      1.48289804	     -0.00000000	      0.00000000	     -0.00000000	      0.02588145	    -18.46738488	     18.87430846	      0.00000000	    -18.64002507	     -9.94362039	      4.85973031
      0.21500000	      2.09761040	     10.17730488	     -1.09244910	     -0.44507808	      0.90528480	      0.24988066	     33.21333499	    -18.19223491	    -24.28383586	    -27.69894354	      0.00000000	      0.00000000	     -0.00000000	     -0.48343776	     -5.60100915	     19.73862086	     -0.00000000	    -29.72158555	      7.71810670	    -20.23390898	     -0.70838891	      0.00000000	      0.00000000	     -0.00000000	     -0.01236372	    -19.27160852	     19.00665489	      0.00000000	    -19.40787330	     -9.32643857	      4.79070871
      0.22000000	      2.93717089	      9.40657208	     -0.88099736	     -0.43708889	      0.90767842	      0.25045268	     31.60966089	    -17.69763139	    -25.04146350	    -27.80936764	      0.00000000	     -0.00000000	      0.00000000	     -0.48536503	     -6.30534968	     19.72847166	      0.00000000	    -29.71735679	      6.30353101	    -21.75722245	     -3.25898911	      0.00000000	      0.00000000	     -0.00000000	     -0.05688009	    -20.03520657	     19.12388159	     -0.00000000	    -20.38431889	     -8.39264969	      3.98486454
      0.22500000	      3.85192435	      8.46530572	     -0.75200060	     -0.42918153	      0.91014706	      0.25131774	     29.88025279	    -16.90852950	    -25.72914395	    -27.79358319	     -0.00000000	      0.00000000	     -0.00000000	     -0.48508954	     -6.93317348	     19.71545793	     -0.00000000	    -29.70788407	      4.64272952	    -23.60206769	     -6.03646924	     -0.00000000	     -0.00000000	      0.00000000	     -0.10535626	    -20.82276807	     19.22162916	      0.00000000	    -21.42617229	     -7.23445070	      3.59707428
      0.23000000	      4.85729214	      7.24296556	     -0.58039372	     -0.42135570	      0.91279282	      0.25223387	     27.90226223	    -15.74319656	    -26.46732778	    -27.51887641	      0.00000000	     -0.00000000	      0.00000000	     -0.48029500	     -7.51750419	     19.69842357	      0.00000000	    -29.69132783	      2.53793896	    -25.77160413	     -9.14549043	      0.00000000	      0.00000000	     -0.00000000	     -0.15961892	    -21.61652834	     19.29840961	      0.00000000	    -22.56051304	     -5.79951635	      3.16410696
      0.23500000	      5.82913824	      5.76556845	     -0.44981997	     -0.41342410	      0.91527637	      0.25332115	     25.90896980	    -14.17572812	    -27.09848127	    -27.08682305	      0.00000000	     -0.00000000	      0.00000000	     -0.47275425	     -8.05555959	     19.67490816	      0.00000000	    -29.66533612	      0.07806669	    -28.17813521	    -12.39703587	     -0.00000000	     -0.00000000	      0.00000000	     -0.21636909	    -22.48604617	     19.36531669	      0.00000000	    -23.60488838	     -4.08641598	      2.98183790
      0.24000000	      6.66161786	      4.25215894	     -0.51067171	     -0.40541864	      0.91716974	      0.25485193	     24.24198498	    -12.44036423	    -27.44171286	    -26.80761031	      0.00000000	     -0.00000000	      0.00000000	     -0.46788106	     -8.42728478	     19.64624121	      0.00000000	    -29.62246810	     -2.42338436	    -30.76304655	    -15.59709759	      0.00000000	     -0.00000000	      0.00000000	     -0.27222071	    -23.47734689	     19.39808181	      0.00000000	    -24.42888126	     -2.21411082	      3.91485894
      0.24500000	      7.52052501	      2.20636995	     -0.22055490	     -0.39732605	      0.91919815	      0.25584635	     22.19642064	    -10.10873866	    -28.07447927	    -25.94280879	      0.00000000	     -0.00000000	      0.00000000	     -0.45278743	     -8.84328297	     19.60512681	      0.00000000	    -29.58113996	     -5.79912344	    -33.47684214	    -19.14245829	     -0.00000000	     -0.00000000	      0.00000000	     -0.33409892	    -24.47384214	     19.42312387	     -0.00000000	    -25.26446630	     -0.08622688	      3.15628223
      0.25000000	      8.17392615	      0.23984886	     -0.07450353	     -0.38910755	      0.92052188	      0.25715401	     20.59677067	     -7.78512304	    -28.43287775	    -25.32389812	     -0.00000000	     -0.00000000	      0.00000000	     -0.44198540	     -9.09085090	     19.55620279	      0.00000000	    -29.51649741	     -9.05861839	    -35.98168594	    -22.48065548	      0.00000000	      0.00000000	     -0.00000000	     -0.39236146	    -25.53380298	     19.41105475	     -0.00000000	    -25.81807080	      2.05134088	      3.26118879
